<?xml version="1.0" encoding="iso-8859-1"?>
<!-- Generator: Adobe Illustrator 19.0.0, SVG Export Plug-In . SVG Version: 6.00 Build 0)  -->
<svg version="1.1" id="Layer_1" xmlns="http://www.w3.org/2000/svg" xmlns:xlink="http://www.w3.org/1999/xlink" x="0px" y="0px"
	 viewBox="0 0 511.998 511.998" style="enable-background:new 0 0 511.998 511.998;" xml:space="preserve">
<g>
	<g>
		<g>
			<path d="M465.893,277.345c-1.067,0-2.131,0.037-3.191,0.11c-4.13-28.549-28.763-50.552-58.439-50.552
				c-24.923,0-46.542,15.217-55.147,37.893c-1.204-0.112-2.415-0.169-3.629-0.169c-0.919,0-1.831,0.044-2.74,0.109
				c-6.555-13.592-16.462-25.244-28.966-33.971c-14.791-10.322-32.174-15.777-50.269-15.777c-20.081,0-39.72,6.945-55.3,19.558
				c-13.059,10.571-22.853,24.746-28.148,40.544c-2.987-0.487-6.012-0.732-9.055-0.732c-16.478,0-32.035,7.237-42.665,19.609
				c-3.801-0.646-7.66-0.972-11.525-0.972c-37.672,0-68.32,30.647-68.32,68.317c0,9.52,1.929,18.693,5.713,27.324
				c-0.642,2.44-1.154,4.932-1.498,7.478c-1.308-0.107-2.623-0.158-3.942-0.158C21.878,395.954,0,417.834,0,444.728
				c0,26.892,21.878,48.769,48.771,48.769h106.21c4.753,0,8.605-3.853,8.605-8.605s-3.852-8.605-8.605-8.605H48.771
				c-17.403,0-31.561-14.158-31.561-31.559c0-17.405,14.158-31.563,31.561-31.563c3.22,0,6.402,0.485,9.455,1.441
				c2.663,0.834,5.565,0.325,7.785-1.367c2.22-1.691,3.482-4.353,3.386-7.142l-0.01-0.268c-0.015-0.422-0.031-0.843-0.031-1.27
				c0-5.4,0.952-10.581,2.689-15.389c0.028-0.078,0.054-0.159,0.082-0.238c5.61-15.263,19.195-26.706,35.677-29.256
				c0.084-0.013,0.168-0.023,0.252-0.036c0.599-0.089,1.201-0.165,1.808-0.23c0.197-0.021,0.394-0.041,0.592-0.059
				c0.522-0.049,1.046-0.088,1.571-0.119c0.204-0.012,0.407-0.027,0.611-0.037c0.709-0.033,1.42-0.054,2.136-0.054
				c21.372,0,39.583,14.541,44.287,35.36c0.201,0.89,0.539,1.732,0.995,2.499c0.76,1.28,1.848,2.353,3.171,3.1
				c0.662,0.373,1.366,0.642,2.088,0.828s1.462,0.288,2.206,0.282c0.595-0.004,1.192-0.071,1.779-0.2
				c0.294-0.065,0.585-0.145,0.873-0.241c2.444-0.814,4.984-1.227,7.552-1.227c7.805,0,15.127,3.841,19.585,10.275
				c2.053,2.962,5.732,4.335,9.224,3.43c2.631-0.679,5.346-1.023,8.068-1.023c0.614,0,1.225,0.021,1.835,0.056
				c0.155,0.009,0.308,0.024,0.461,0.036c0.469,0.033,0.936,0.074,1.4,0.129c0.148,0.017,0.296,0.038,0.443,0.056
				c0.495,0.065,0.987,0.139,1.477,0.227c0.099,0.017,0.198,0.034,0.297,0.053c2.465,0.465,4.856,1.215,7.127,2.23
				c0.037,0.016,0.073,0.033,0.11,0.049c0.527,0.238,1.047,0.49,1.56,0.756c0.052,0.027,0.103,0.053,0.155,0.08
				c1.085,0.57,2.137,1.201,3.153,1.893c0.11,0.074,0.215,0.154,0.323,0.23c0.358,0.251,0.711,0.508,1.06,0.772
				c0.193,0.146,0.381,0.297,0.57,0.449c0.255,0.203,0.507,0.412,0.756,0.624c0.213,0.182,0.426,0.362,0.635,0.55
				c0.215,0.193,0.424,0.392,0.634,0.589c0.429,0.406,0.846,0.823,1.252,1.252c0.153,0.161,0.31,0.317,0.458,0.482
				c0.223,0.245,0.436,0.499,0.651,0.751c0.161,0.189,0.324,0.378,0.481,0.57c0.205,0.252,0.406,0.509,0.602,0.767
				c0.16,0.21,0.318,0.423,0.474,0.637c3.843,5.283,6.118,11.778,6.118,18.797c0,17.661-14.369,32.029-32.031,32.029h-30.581
				c-4.752,0-8.605,3.853-8.605,8.605s3.853,8.605,8.605,8.605h30.581c27.152,0,49.241-22.089,49.241-49.239
				c0-5.091-0.777-10.003-2.217-14.626h52.444c4.752,0,8.605-3.853,8.605-8.605s-3.853-8.605-8.605-8.605h-61.913
				c-0.312-0.368-0.642-0.717-0.964-1.075c-0.083-0.092-0.166-0.186-0.25-0.278c-0.45-0.492-0.909-0.972-1.377-1.443
				c-0.112-0.112-0.224-0.224-0.336-0.336c-0.456-0.452-0.919-0.895-1.392-1.326c-0.14-0.128-0.282-0.253-0.423-0.379
				c-0.459-0.411-0.922-0.818-1.396-1.21c-0.175-0.146-0.356-0.286-0.534-0.429c-0.452-0.365-0.904-0.728-1.368-1.076
				c-0.267-0.201-0.543-0.389-0.814-0.585c-0.387-0.279-0.77-0.563-1.165-0.829c-0.69-0.467-1.393-0.916-2.107-1.349
				c-0.067-0.04-0.135-0.077-0.203-0.117c-0.679-0.407-1.368-0.797-2.067-1.171c-0.091-0.048-0.185-0.094-0.276-0.142
				c-0.682-0.359-1.372-0.703-2.072-1.031c-0.09-0.042-0.181-0.082-0.271-0.123c-0.706-0.326-1.421-0.635-2.144-0.927
				c-0.085-0.034-0.171-0.068-0.256-0.101c-0.728-0.29-1.465-0.563-2.21-0.818c-0.086-0.029-0.172-0.058-0.258-0.088
				c-0.742-0.25-1.491-0.482-2.248-0.697c-0.094-0.027-0.186-0.054-0.28-0.08c-0.743-0.207-1.494-0.395-2.251-0.566
				c-0.11-0.025-0.218-0.052-0.329-0.076c-0.732-0.161-1.471-0.303-2.216-0.431c-0.134-0.024-0.269-0.051-0.403-0.072
				c-0.711-0.116-1.428-0.213-2.149-0.298c-0.166-0.019-0.33-0.045-0.497-0.063c-0.699-0.075-1.405-0.13-2.111-0.175
				c-0.182-0.012-0.361-0.031-0.542-0.041c-0.877-0.046-1.759-0.073-2.647-0.073c-2.272,0-4.54,0.157-6.786,0.468
				c-7.711-8.319-18.593-13.151-30.09-13.151c-1.439,0-2.872,0.075-4.297,0.225c-9.014-24.293-32.06-40.626-58.655-40.626
				c-1.115,0-2.222,0.037-3.324,0.095c-0.375,0.019-0.748,0.053-1.121,0.079c-0.719,0.051-1.436,0.11-2.148,0.184
				c-0.455,0.047-0.908,0.102-1.361,0.159c-0.609,0.077-1.213,0.166-1.817,0.26c-0.509,0.08-1.018,0.158-1.523,0.25
				c-0.472,0.086-0.939,0.187-1.408,0.284c-14.393,2.956-27.168,10.831-36.207,22.142c-0.105-1.348-0.158-2.705-0.158-4.072
				c0-28.18,22.927-51.107,51.109-51.107c4.344,0,8.673,0.55,12.865,1.633c3.495,0.9,7.173-0.47,9.226-3.431
				c7.303-10.543,19.303-16.837,32.1-16.837c4.208,0,8.368,0.677,12.367,2.009c2.305,0.769,4.831,0.527,6.947-0.667
				c2.118-1.193,3.632-3.228,4.168-5.599c7.333-32.45,35.716-55.113,69.021-55.113c26.641,0,50.385,14.527,62.552,37.637
				c-0.09,0.052-0.174,0.113-0.263,0.166c-0.638,0.375-1.264,0.768-1.88,1.179c-0.134,0.09-0.271,0.177-0.406,0.269
				c-0.716,0.492-1.42,1.004-2.103,1.544c-0.058,0.045-0.114,0.095-0.171,0.141c-0.619,0.494-1.22,1.01-1.809,1.542
				c-0.135,0.123-0.27,0.244-0.404,0.368c-0.634,0.589-1.256,1.193-1.852,1.826c-2.026-0.267-4.071-0.401-6.121-0.401
				c-25.667,0-46.548,20.88-46.548,46.546c0,25.667,20.881,46.548,46.548,46.548h99.3c-3.658,24.225-24.622,42.857-49.853,42.857
				h-15.237c-4.752,0-8.605,3.853-8.605,8.605s3.853,8.605,8.605,8.605h15.237c34.734,0,63.423-26.325,67.194-60.067h38.198
				c25.424,0,46.107-20.683,46.107-46.107C512,298.031,491.317,277.345,465.893,277.345z M465.893,352.354h-46.397H311.053
				c-16.177,0-29.338-13.16-29.338-29.338c0-16.176,13.16-29.336,29.338-29.336c2.497,0,4.983,0.315,7.391,0.937
				c0.872,0.225,1.758,0.308,2.626,0.259c0.335-0.018,0.664-0.073,0.991-0.13c0.097-0.017,0.197-0.018,0.294-0.039
				c1.56-0.326,3.001-1.098,4.172-2.217c0.415-0.396,0.807-0.821,1.142-1.306c0.327-0.471,0.677-0.923,1.037-1.364
				c0.089-0.11,0.181-0.217,0.272-0.326c0.33-0.388,0.67-0.766,1.026-1.129c0.043-0.044,0.085-0.091,0.128-0.136
				c0.404-0.406,0.826-0.793,1.26-1.164c0.088-0.075,0.179-0.147,0.267-0.222c0.379-0.314,0.766-0.615,1.165-0.902
				c0.077-0.056,0.154-0.115,0.232-0.17c0.464-0.325,0.94-0.633,1.428-0.921c0.089-0.053,0.18-0.101,0.27-0.152
				c0.421-0.24,0.849-0.466,1.284-0.678c0.107-0.052,0.211-0.105,0.318-0.155c0.516-0.241,1.042-0.464,1.578-0.664
				c0.058-0.021,0.117-0.04,0.176-0.061c0.503-0.183,1.014-0.345,1.533-0.49c1.881-0.529,3.843-0.815,5.844-0.815
				c2.335,0,4.646,0.375,6.869,1.115c2.307,0.768,4.83,0.526,6.946-0.669c2.118-1.193,3.631-3.228,4.167-5.599
				c4.264-18.874,21.42-32.572,40.795-32.572c23.069,0,41.838,18.769,41.838,41.838c0,0.423-0.018,0.839-0.032,1.255l-0.005,0.139
				c-0.104,2.792,1.155,5.462,3.378,7.157c2.221,1.695,5.126,2.21,7.795,1.371c2.791-0.874,5.704-1.319,8.658-1.319
				c15.934,0,28.897,12.966,28.897,28.901C494.79,339.39,481.828,352.354,465.893,352.354z"/>
			<path d="M128.247,248.301c18.786,0,36.991-5.421,52.648-15.678c15.241-9.988,27.292-24.005,34.852-40.536
				c2.534-5.539,0.978-12.064-3.783-15.863c-2.338-1.866-5.274-2.895-8.266-2.895c-2.89,0-5.746,0.966-8.044,2.72
				c-11.43,8.731-25.093,13.346-39.511,13.346c-35.934,0-65.167-29.234-65.167-65.168c0-14.419,4.616-28.081,13.347-39.512
				c3.697-4.841,3.625-11.547-0.173-16.304c-2.528-3.169-6.303-4.988-10.357-4.988c-1.917,0-3.772,0.406-5.509,1.201
				C71.75,72.188,57.733,84.239,47.75,99.477c-10.258,15.656-15.679,33.86-15.679,52.647
				C32.07,205.156,75.215,248.301,128.247,248.301z M62.145,108.911c5.358-8.179,12.13-15.241,19.969-20.887
				c-5.493,11.177-8.348,23.458-8.348,36.203c0,45.423,36.954,82.378,82.377,82.378c12.747,0,25.03-2.855,36.207-8.349
				c-5.645,7.837-12.706,14.609-20.888,19.97c-12.845,8.415-27.788,12.863-43.214,12.863c-43.543,0-78.967-35.425-78.967-78.966
				C49.28,136.699,53.729,121.754,62.145,108.911z"/>
			<path d="M281.716,121.733c0-4.752-3.853-8.605-8.605-8.605s-8.605,3.853-8.605,8.605c0,10.733-8.732,19.465-19.465,19.465
				c-4.752,0-8.605,3.853-8.605,8.605s3.853,8.605,8.605,8.605c10.733,0,19.465,8.732,19.465,19.465
				c0,4.752,3.853,8.605,8.605,8.605s8.605-3.853,8.605-8.605c0-10.733,8.732-19.465,19.465-19.465c4.752,0,8.605-3.853,8.605-8.605
				s-3.853-8.605-8.605-8.605C290.448,141.196,281.716,132.464,281.716,121.733z M273.111,154.292
				c-1.365-1.622-2.869-3.126-4.491-4.491c1.622-1.365,3.126-2.869,4.491-4.491c1.365,1.622,2.869,3.126,4.491,4.491
				C275.979,151.166,274.474,152.67,273.111,154.292z"/>
			<path d="M152.003,122.207c10.733,0,19.465,8.732,19.465,19.465c0,4.752,3.853,8.605,8.605,8.605c4.752,0,8.605-3.853,8.605-8.605
				c0-10.733,8.732-19.465,19.465-19.465c4.752,0,8.605-3.853,8.605-8.605c0-4.752-3.853-8.605-8.605-8.605
				c-10.733,0-19.465-8.732-19.465-19.465c0-4.752-3.853-8.605-8.605-8.605c-4.752,0-8.605,3.853-8.605,8.605
				c0,10.733-8.732,19.465-19.465,19.465c-4.752,0-8.605,3.853-8.605,8.605C143.398,118.354,147.251,122.207,152.003,122.207z
				 M180.073,109.111c1.365,1.622,2.869,3.126,4.491,4.491c-1.622,1.365-3.126,2.869-4.491,4.491
				c-1.365-1.622-2.869-3.126-4.491-4.491C177.205,112.237,178.708,110.733,180.073,109.111z"/>
			<path d="M224.555,63.781c10.733,0,19.465,8.732,19.465,19.465c0,4.752,3.853,8.605,8.605,8.605c4.753,0,8.606-3.853,8.606-8.605
				c0-10.733,8.731-19.465,19.464-19.465c4.752,0,8.605-3.853,8.605-8.605c0-4.752-3.853-8.605-8.605-8.605
				c-10.733,0-19.464-8.732-19.464-19.465c0-4.752-3.853-8.605-8.606-8.605c-4.752,0-8.605,3.853-8.605,8.605
				c0,10.733-8.732,19.465-19.465,19.465c-4.752,0-8.605,3.853-8.605,8.605C215.95,59.928,219.801,63.781,224.555,63.781z
				 M252.623,50.685c1.365,1.622,2.869,3.126,4.49,4.491c-1.622,1.365-3.125,2.869-4.49,4.491c-1.365-1.622-2.869-3.126-4.491-4.491
				C249.755,53.811,251.258,52.307,252.623,50.685z"/>
		</g>
	</g>
</g>
<g>
</g>
<g>
</g>
<g>
</g>
<g>
</g>
<g>
</g>
<g>
</g>
<g>
</g>
<g>
</g>
<g>
</g>
<g>
</g>
<g>
</g>
<g>
</g>
<g>
</g>
<g>
</g>
<g>
</g>
</svg>
